<svg width="76" height="76" viewBox="0 0 76 76" fill="none" xmlns="http://www.w3.org/2000/svg">
<g clip-path="url(#clip0_38_98)">
<path fill-rule="evenodd" clip-rule="evenodd" d="M36.1445 -0.0742188C36.5898 -0.0742188 37.0351 -0.0742188 37.4804 -0.0742188C36.0363 2.56622 34.6261 5.23809 33.25 7.94141C31.8989 10.6433 30.7114 13.4142 29.6875 16.2539C28.8414 18.4054 28.4951 20.6319 28.6484 22.9336C28.7963 23.7736 29.2662 24.3427 30.0586 24.6406C36.4965 25.1694 42.9287 25.0951 49.3554 24.418C50.5291 25.8259 51.6672 27.2607 52.7695 28.7227C52.6997 28.8997 52.5513 28.9987 52.3242 29.0195C45.531 30.085 38.7028 30.4807 31.8398 30.207C29.484 35.5371 27.109 40.8561 24.7148 46.1641C25.3383 46.367 25.9814 46.4412 26.6445 46.3867C27.5056 43.4821 28.4704 40.6122 29.539 37.7773C30.3041 40.7863 31.0215 43.8045 31.6914 46.832C39.4468 47.176 47.1655 46.8297 54.8476 45.793C56.0283 47.3698 57.2652 48.9036 58.5586 50.3945C54.3542 51.2789 50.099 51.8479 45.7929 52.1016C39.7049 52.4157 33.619 52.3909 27.5351 52.0273C27.3373 52.0768 27.1392 52.1264 26.9414 52.1758C24.875 54.476 23.2174 57.049 21.9687 59.8945C21.0318 61.8656 21.0814 63.7953 22.1172 65.6836C22.9628 66.6125 23.9771 67.2557 25.1601 67.6133C21.976 67.3997 18.8094 67.0286 15.6601 66.5C13.1611 66.3709 11.2562 65.2576 9.94529 63.1602C9.17751 61.15 9.52386 59.3688 10.9843 57.8164C14.3418 53.8966 17.6817 49.963 21.0039 46.0156C19.5679 45.7179 18.133 45.3714 16.6992 44.9766C13.4854 43.1857 13.0153 40.8355 15.289 37.9258C19.0806 33.4914 22.8163 29.0134 26.4961 24.4922C25.3197 24.2393 24.1322 24.0414 22.9336 23.8984C20.3065 23.4545 19.1932 21.9454 19.5937 19.3711C24.3506 13.5755 29.0511 7.73693 33.6953 1.85547C34.3723 1.00185 35.1887 0.358619 36.1445 -0.0742188Z" fill="#3DAD52"/>
<path opacity="0.993" fill-rule="evenodd" clip-rule="evenodd" d="M37.4805 -0.0742188C38.2227 -0.0742188 38.9649 -0.0742188 39.7071 -0.0742188C40.4668 0.212166 41.1347 0.657479 41.711 1.26172C46.4532 7.33027 51.3021 13.3173 56.2578 19.2227C56.8696 21.3391 56.1522 22.7987 54.1055 23.6016C52.5392 23.9773 50.9558 24.2493 49.3555 24.418C42.9287 25.0951 36.4965 25.1694 30.0586 24.6406C29.2662 24.3427 28.7963 23.7736 28.6485 22.9336C28.4951 20.6319 28.8414 18.4054 29.6875 16.2539C30.7114 13.4142 31.8989 10.6433 33.25 7.94141C34.6262 5.23809 36.0363 2.56622 37.4805 -0.0742188Z" fill="#4CC067"/>
<path opacity="0.995" fill-rule="evenodd" clip-rule="evenodd" d="M52.7695 28.7227C55.6614 32.1262 58.5559 35.5402 61.4531 38.9648C62.5765 41.2251 62.1064 43.0806 60.043 44.5312C58.4078 45.3319 56.6761 45.7524 54.8477 45.793C47.1656 46.8297 39.4468 47.176 31.6914 46.832C31.0215 43.8045 30.3041 40.7863 29.5391 37.7773C28.4705 40.6122 27.5056 43.4821 26.6445 46.3867C25.9815 46.4412 25.3383 46.367 24.7148 46.1641C27.109 40.8561 29.484 35.5371 31.8398 30.207C38.7029 30.4807 45.531 30.085 52.3242 29.0195C52.5513 28.9987 52.6998 28.8997 52.7695 28.7227Z" fill="#4CC067"/>
<path opacity="0.992" fill-rule="evenodd" clip-rule="evenodd" d="M58.5586 50.3945C60.8776 53.1843 63.2278 55.9551 65.6094 58.707C67.0368 61.514 66.4182 63.7653 63.7539 65.4609C62.3098 66.1249 60.8006 66.5456 59.2266 66.7227C57.2402 64.2913 55.3105 61.8172 53.4375 59.3008C53.3633 62.0216 53.3385 64.7431 53.3633 67.4648C50.4993 67.7448 47.6296 67.9427 44.7539 68.0586C40.2006 68.2367 35.6485 68.2367 31.0977 68.0586C29.0881 68.0212 27.109 67.8728 25.1602 67.6133C23.9771 67.2557 22.9628 66.6125 22.1172 65.6836C21.0814 63.7953 21.0318 61.8656 21.9688 59.8945C23.2174 57.049 24.875 54.476 26.9414 52.1758C27.1393 52.1264 27.3373 52.0768 27.5352 52.0273C33.619 52.3909 39.705 52.4157 45.793 52.1016C50.099 51.8479 54.3543 51.2789 58.5586 50.3945Z" fill="#4DC067"/>
<path opacity="0.98" fill-rule="evenodd" clip-rule="evenodd" d="M31.0977 68.0586C35.6485 68.2367 40.2006 68.2367 44.7539 68.0586C44.9779 68.9317 45.1263 69.8223 45.1992 70.7305C42.2563 70.8785 39.2875 70.9279 36.293 70.8789C36.293 72.5117 36.293 74.1445 36.293 75.7773C34.1749 75.5661 32.1462 75.0218 30.207 74.1445C30.1576 74.0455 30.108 73.9467 30.0586 73.8477C30.4212 71.9192 30.7675 69.9895 31.0977 68.0586Z" fill="#7F4A26"/>
<path fill-rule="evenodd" clip-rule="evenodd" d="M45.1992 70.7305C45.4263 71.6938 45.6243 72.6833 45.793 73.6992C45.7435 73.8477 45.694 73.9961 45.6445 74.1445C42.6687 75.4735 39.5515 76.0177 36.293 75.7774C36.293 74.1445 36.293 72.5117 36.293 70.8789C39.2875 70.9279 42.2563 70.8785 45.1992 70.7305Z" fill="#925C34"/>
</g>
<defs>
<clipPath id="clip0_38_98">
<rect width="76" height="76" fill="white"/>
</clipPath>
</defs>
</svg>
